<svg xmlns="http://www.w3.org/2000/svg" version="1.1" xmlns:xlink="http://www.w3.org/1999/xlink" xmlns:svgjs="http://svgjs.dev/svgjs" width="1000" height="707" viewBox="0 0 1000 707"><g transform="matrix(1,0,0,1,-0.6060606060606233,0.00010356457465832136)"><svg viewBox="0 0 396 280" data-background-color="#ffffff" preserveAspectRatio="xMidYMid meet" height="707" width="1000" xmlns="http://www.w3.org/2000/svg" xmlns:xlink="http://www.w3.org/1999/xlink"><g id="tight-bounds" transform="matrix(1,0,0,1,0.2400000000000091,-0.00003305811344489484)"><svg viewBox="0 0 395.52 280" height="280" width="395.52"><g><svg viewBox="0 0 395.52 280" height="280" width="395.52"><g transform="matrix(1,0,0,1,129.88959120312893,60.80404050710669)"><svg viewBox="0 0 135.74081759374212 158.39191898578662" height="158.39191898578662" width="135.74081759374212"><g><svg viewBox="0 0 135.74081759374212 158.39191898578662" height="158.39191898578662" width="135.74081759374212"><g><svg viewBox="0 0 135.74081759374212 158.39191898578662" height="158.39191898578662" width="135.74081759374212"><g><svg viewBox="0 0 135.74081759374212 158.39191898578662" height="158.39191898578662" width="135.74081759374212"><g><svg viewBox="0 0 135.74081759374212 158.39191898578662" height="158.39191898578662" width="135.74081759374212"><path d="M135.423 33.972C134.785 17.531 132.966 12.96 132.966 12.96 127.382-3.974 120.414-0.324 114.154 2.109 103.101 2.208 92.093 5.825 81.066 7.765 57.92 8.061 34.577 3.194 11.546 15.196 9.383 18.879-2.244 15.92 0.385 36.076 1.074 44.461 3.588 53.767 3.512 61.461 3.856 62.81 4.335 59.719 4.539 61.659 5.254 66.887 6.422 64.421 7.379 67.512 6.045 75.765 7.002 82.637 7.915 89.839 6.307 91.713 4.246 90.825 3.32 97.04 3.225 101.545 2.708 100.69 2.14 100.492 1.725 100.361 0.889 100.854 1.029 102.268 1.508 107.102-0.547 109.897 0.742 114.632-0.145 119.761 1.355 124.2 1.151 129.757 1.125 130.875 1.265 131.829 1.489 132.092 2.478 133.506 1.036 136.268 1.189 139.26 11.335 159.713 22.343 145.574 32.739 154.978 35.438 148.402 33.409 157.313 34.487 155.932 35.33 154.32 35.942 160.995 36.893 157.214 37.04 156.129 36.817 153.564 37.34 154.057 37.614 154.32 37.857 154.255 37.895 152.742 37.952 150.473 37.448 151.887 37.314 150.703 38.763 144.719 38.406 158.957 39.765 158.365 39.701 156.622 39.305 154.123 40.116 154.452 40.92 151.953 40.945 149.881 41.66 155.504 41.686 156.721 41.813 157.576 42.017 158.168 44.251 152.051 46.472 160.338 48.814 157.576 50.25 154.551 51.628 159.22 53.083 158.069 53.593 157.148 54.11 155.504 54.602 158.266 60.619 158.858 67.033 156.392 72.738 158.365 87.983 154.682 104.275 159.877 120.35 155.011 124.141 153.137 128.078 150.473 131.773 148.336 131.773 148.336 134.766 142.483 134.766 116.177S135.404 93.16 135.5 72.214C135.595 51.268 136.042 50.413 135.404 33.972Z" opacity="1" fill="#0063db" data-fill-palette-color="tertiary"></path><g transform="matrix(1,0,0,1,31.54732579790509,16.80714251460291)"><svg width="72.64616599793196" viewBox="1.5 -22.8 15.05 25.850000000000005" height="124.7776339565808" data-palette-color="#ffffff"><path d="M16.55-5.75L16.55-5.75Q16.55-3.05 14.03-0.93 11.5 1.2 8.58 2.13 5.65 3.05 3.45 3.05L3.45 3.05Q3.2 3.05 2.75 2.45L2.75 2.45Q1.5 0.8 1.5-1.4L1.5-1.4 1.5-1.75Q5.4-1.75 7.45-3.1 9.5-4.45 9.5-5.9L9.5-5.9Q9.5-6.85 8.25-7.9 7-8.95 5.5-9.75 4-10.55 2.75-11.88 1.5-13.2 1.5-14.65L1.5-14.65Q1.5-17.7 5.3-20.25 9.1-22.8 13.4-22.8L13.4-22.8Q13.9-22.8 14.7-21.43 15.5-20.05 15.55-18.6L15.55-18.6Q14.55-18.6 12.55-18L12.55-18Q8.6-16.75 8.6-14.9L8.6-14.9Q8.6-13.6 12.5-11.35L12.5-11.35Q14-10.5 15.25-9 16.5-7.5 16.55-5.75Z" opacity="1" transform="matrix(1,0,0,1,0,0)" fill="#ffffff" class="undefined-text-0" data-fill-palette-color="quaternary" id="text-0"></path></svg></g></svg></g></svg></g></svg></g></svg></g></svg></g><path d="M204.089 13.952V13.952C204.102 15.429 203.423 16.753 202.052 17.923 200.682 19.1 199.198 19.946 197.6 20.459 196.009 20.979 194.613 21.244 193.413 21.254V21.254C193.274 21.255 193.082 21.094 192.837 20.77V20.77C192.142 19.874 191.79 18.826 191.779 17.626V17.626L191.777 17.335C193.907 17.317 195.53 16.935 196.647 16.19 197.758 15.445 198.31 14.674 198.303 13.876V13.876C198.298 13.356 197.954 12.814 197.269 12.251 196.578 11.682 195.821 11.182 194.998 10.752 194.176 10.322 193.422 9.749 192.736 9.033 192.043 8.311 191.693 7.554 191.686 6.763V6.763C191.672 5.099 192.696 3.56 194.758 2.148 196.827 0.736 199.034 0.02 201.379 0V0C201.656-0.002 202.017 0.373 202.46 1.125 202.904 1.87 203.143 2.638 203.177 3.429V3.429C202.629 3.434 201.808 3.604 200.715 3.939V3.939C198.564 4.644 197.492 5.5 197.501 6.506V6.506C197.507 7.22 198.584 8.182 200.731 9.391V9.391C201.553 9.849 202.308 10.484 202.995 11.297 203.688 12.11 204.053 12.995 204.089 13.952ZM201.756 275.418V275.418C201.751 276.361 201.306 277.202 200.421 277.939 199.529 278.683 198.569 279.212 197.54 279.526 196.512 279.846 195.613 280.004 194.843 280V280C194.759 279.999 194.639 279.895 194.48 279.686V279.686C194.046 279.101 193.832 278.423 193.836 277.653V277.653L193.837 277.476C195.203 277.484 196.245 277.25 196.962 276.776 197.686 276.308 198.05 275.821 198.053 275.314V275.314C198.054 274.981 197.838 274.63 197.403 274.26 196.968 273.89 196.488 273.561 195.962 273.274 195.436 272.993 194.956 272.62 194.522 272.152 194.087 271.685 193.871 271.198 193.874 270.692V270.692C193.88 269.624 194.551 268.646 195.888 267.758 197.225 266.871 198.646 266.431 200.151 266.44V266.44C200.325 266.441 200.552 266.685 200.834 267.172 201.109 267.652 201.255 268.145 201.273 268.652V268.652C200.92 268.65 200.392 268.754 199.69 268.966V268.966C198.3 269.395 197.604 269.932 197.6 270.577V270.577C197.598 271.035 198.281 271.663 199.65 272.462V272.462C200.169 272.763 200.645 273.175 201.079 273.697 201.52 274.227 201.746 274.801 201.756 275.418ZM59.512 139.495C59.512 135.553 62.708 132.356 66.651 132.356 70.593 132.356 73.79 135.553 73.79 139.495 73.79 143.438 70.593 146.634 66.651 146.634 62.708 146.634 59.512 143.438 59.512 139.495ZM321.73 139.495C321.73 135.553 324.927 132.356 328.869 132.356 332.812 132.356 336.008 135.553 336.008 139.495 336.008 143.438 332.812 146.634 328.869 146.634 324.927 146.634 321.73 143.438 321.73 139.495Z" fill="#d90000" data-fill-palette-color="accent"></path></svg></g><defs></defs></svg><rect width="395.52" height="280" fill="none" stroke="none" visibility="hidden"></rect></g></svg></g></svg>